# xmcd
#
# Track frame offsets: 
#        150
#        14611
#        32743
#        48462
#        74252
#        94312
#        113997
#        135779
#        151532
#        169662
#        182978
#        199066
#        221203
#
# Disc length: 3175 seconds
#
# Revision: 4
# Processed by: cddbd v1.5.2PL0 Copyright (c) Steve Scherf et al.
# Submitted via: ExactAudioCopy v0.99pb5
#
DISCID=b30c650d
DTITLE=Marcia Ball - Presumed Innocent
DYEAR=2001
DGENRE=Blues
TTITLE0=Scene Of The Crime
TTITLE1=You Make It Hard
TTITLE2=Count The Days
TTITLE3=Let The Tears Roll Down
TTITLE4=Louella
TTITLE5=Fly On The Wall
TTITLE6=I Have The Right To Know
TTITLE7=Thibodaux, Louisiana
TTITLE8=I'm Coming Down With The Blues
TTITLE9=Shake A Leg
TTITLE10=Somebody To Love
TTITLE11=She's So Innocent
TTITLE12=You Make Me Happy
EXTD=Marcia Ball\nAlligator Records\nALCD 4879
EXTT0=
EXTT1=
EXTT2=
EXTT3=
EXTT4=
EXTT5=
EXTT6=
EXTT7=
EXTT8=
EXTT9=
EXTT10=
EXTT11=
EXTT12=
PLAYORDER=
